<svg xmlns="http://www.w3.org/2000/svg" width="70" height="35" fill="none" viewBox="15 33 70 35"><path fill="#000" d="M66.7 47.3c-2.5.4-3.7 2.2-3.7 5.4s1.7 5.4 4.2 5.4 2.3-.4 4.6-1.5v2.6c-2.7 1.3-4.3 1.6-6.6 1.6s-4.1-.6-5.4-2c-1.4-1.4-2.1-3.3-2.1-5.3 0-4.6 3.4-7.7 8.4-7.7s5.6 1.5 5.6 3.7-1.1 2.4-2.6 2.4-1.5-.2-2.3-.7v-3.9zm-12.1 6.1c2.2-2.8 3-3.9 3-5.3s-1.1-2.5-2.5-2.5-1.7.4-2.1.9v5.7L49.4 57V46H46l-5.7 9.5V46h-2l-5.2 1.3v1.3l2.8.3v11.6h3.7l5.5-9v9h4l5.6-7.1zM22.2 49c.8 0 1.3-.2 1.7-.2 2.4 0 3.7 1.6 3.7 4.6s-1.6 5.4-4.5 5.4h-.8v-9.7zm0 11.4h2.4c4.9 0 8-3.1 8-7.8s-2.3-6.9-5.5-6.9-2.3.3-4.9 1.9v-1.9h-1.5L15 47.4v1.4h2.4V65l-2.1.5v1.3h9.3v-1.3l-2.4-.5v-4.7z"/><path fill="#fd5108" d="M64.1 41.8H48.6l2.6-4.4h15.5zM84.9 33H69.4l-2.6 4.4h15.5z"/></svg>