<svg xmlns="http://www.w3.org/2000/svg" width="123" height="56" fill="none" viewBox="0 0 123 56"><g clip-path="url(#a)"><g clip-path="url(#b)"><mask id="c" width="123" height="22" x="0" y="17" maskUnits="userSpaceOnUse" style="mask-type:luminance"><path fill="#fff" d="M123 17H0v22h123z"/></mask><g mask="url(#c)"><path fill="#fff" d="M24.825 23.142c-4.469 0-7.96 3.396-7.96 7.943s3.403 7.914 7.96 7.914c4.556 0 8.018-3.425 8.018-7.943 0-4.489-3.403-7.914-8.018-7.914m.03 12.58c-2.545 0-4.41-1.979-4.41-4.636 0-2.687 1.835-4.665 4.38-4.665 2.574 0 4.438 2.008 4.438 4.665s-1.864 4.636-4.408 4.636m8.964-9.125h2.22v12.108h3.55V23.437h-5.77zM7.93 26.42c1.865 0 3.345 1.151 3.906 2.864h3.758c-.68-3.661-3.699-6.142-7.633-6.142-4.469 0-7.96 3.396-7.96 7.944S3.403 39 7.96 39c3.846 0 6.923-2.48 7.604-6.172h-3.729c-.533 1.712-2.012 2.894-3.876 2.894-2.575 0-4.38-1.979-4.38-4.636.002-2.687 1.777-4.666 4.35-4.666m93.353 3.19-2.604-.384c-1.243-.177-2.13-.59-2.13-1.565 0-1.064 1.154-1.594 2.722-1.594 1.716 0 2.811.737 3.048 1.948h3.432c-.385-3.07-2.752-4.872-6.391-4.872-3.758 0-6.244 1.92-6.244 4.636 0 2.598 1.628 4.105 4.912 4.577l2.604.383c1.272.177 1.983.68 1.983 1.625 0 1.21-1.243 1.713-2.959 1.713-2.102 0-3.285-.857-3.463-2.156h-3.49C93.026 36.904 95.363 39 99.624 39c3.876 0 6.45-1.772 6.45-4.814 0-2.716-1.864-4.134-4.793-4.577M37.814 17.147c-1.302 0-2.279.944-2.279 2.243 0 1.3.976 2.244 2.28 2.244 1.301 0 2.278-.945 2.278-2.244s-.977-2.243-2.279-2.243M89.92 28.665c0-3.307-2.012-5.522-6.273-5.522-4.024 0-6.272 2.038-6.717 5.168h3.522c.177-1.21 1.124-2.214 3.136-2.214 1.806 0 2.693.797 2.693 1.772 0 1.27-1.628 1.594-3.64 1.8-2.722.296-6.095 1.24-6.095 4.784 0 2.747 2.042 4.518 5.297 4.518 2.544 0 4.142-1.063 4.942-2.747.118 1.506 1.242 2.48 2.811 2.48h2.071v-3.158h-1.746zm-3.492 3.839c0 2.038-1.775 3.544-3.935 3.544-1.332 0-2.457-.562-2.457-1.742 0-1.506 1.806-1.92 3.463-2.096 1.598-.148 2.485-.502 2.93-1.182zm-18.847-9.362c-1.983 0-3.64.827-4.824 2.215V17h-3.55v21.705h3.491v-2.008C63.882 38.144 65.568 39 67.581 39c4.26 0 7.486-3.366 7.486-7.914s-3.285-7.944-7.486-7.944m-.533 12.58c-2.545 0-4.41-1.979-4.41-4.636s1.895-4.665 4.439-4.665c2.575 0 4.379 1.979 4.379 4.665 0 2.657-1.864 4.636-4.408 4.636m-16.334-12.58c-2.307 0-3.817.945-4.705 2.274v-1.979h-3.521v15.267h3.55v-8.298c0-2.333 1.48-3.986 3.67-3.986 2.041 0 3.313 1.446 3.313 3.544v8.74h3.55V29.7c.002-3.84-1.98-6.557-5.857-6.557M123 30.584c0-4.37-3.195-7.44-7.486-7.44-4.557 0-7.901 3.425-7.901 7.942 0 4.755 3.581 7.914 7.96 7.914 3.699 0 6.599-2.186 7.338-5.286h-3.699c-.533 1.359-1.835 2.127-3.581 2.127-2.279 0-3.995-1.418-4.379-3.899h11.747zm-11.54-1.181c.562-2.127 2.16-3.16 3.995-3.16 2.012 0 3.55 1.152 3.905 3.16z"/></g></g></g><defs><clipPath id="a"><path fill="#fff" d="M0 0h123v56H0z"/></clipPath><clipPath id="b"><path fill="#fff" d="M0 17h123v22H0z"/></clipPath></defs></svg>