<svg xmlns="http://www.w3.org/2000/svg" xml:space="preserve" width="133.333" height="53.373" viewBox="0 0 133.333 53.373"><path d="M511.617 400.082c35.762 1.231 71.758-4.148 105.488-16.117 50.743-17.813 96.094-50.457 129.278-92.742 14.597-18.551 26.824-38.942 36.406-60.516 1.699-3.59 3.008-7.625 2.098-11.625-1.114-6.715-7-12.266-13.77-12.937-7.031-1.028-14.297 3.359-16.804 9.984-19.055 44.84-51.575 83.789-92.141 110.75-25.078 16.758-53.203 28.961-82.586 35.793-37.891 8.863-77.785 8.863-115.684.027-54.113-12.461-103.66-43.5-138.605-86.629-14.817-18.172-27.051-38.429-36.274-59.98-1.996-5.008-6.582-8.934-11.933-9.813-5.16-.996-10.777.786-14.375 4.629-4.242 4.25-5.629 11.043-3.442 16.621 25.383 60.012 72.383 110.426 130.168 140.434 37.637 19.699 79.739 30.687 122.176 32.121" style="fill:#f49813;fill-opacity:1;fill-rule:nonzero;stroke:none" transform="matrix(.13333 0 0 -.13333 0 53.373)"/><path d="M464.359 215.305c-.214 3.117 2.735 5.449 5.657 5.523 3.797.102 7.605.07 11.41.016 2.644-.09 5.73-1.852 5.719-4.821.136-34.871-.082-69.753.117-104.644 14.129 15.711 28.379 31.336 42.558 47 2.793 2.754 5 6.926 9.344 7.285 5.852.242 11.719.098 17.578.09 2.258.203 4.778-1.867 3.985-4.277-.926-1.86-2.625-3.137-4.012-4.614-15.332-15.32-30.723-30.586-45.977-45.972 14.735-16.82 29.266-33.813 43.934-50.696 1.887-2.402 4.25-4.441 5.832-7.09 1.16-2.07-.762-4.59-2.981-4.687-4.871-.274-9.753 0-14.636-.117-2.539.058-5.285-.313-7.59.996-2.43 1.394-3.906 3.887-5.645 5.984-14.148 17.817-28.203 35.703-42.402 53.489-.145-17.54-.043-35.07-.055-52.598-.054-2.024.36-4.461-1.402-5.938-2.805-2.707-6.98-1.757-10.48-1.933-3.106.105-6.739-.574-9.262 1.718-1.406 1.094-1.774 2.961-1.719 4.622.039 53.562-.016 107.117.027 160.664m-64.449-49.258c7.094 2.281 15.09 2.715 22.039-.293 2.438-1.145 5.27-3.586 4.168-6.594-1.113-3.777-2.062-7.597-3.39-11.308-.981-2.664-4.071-3.653-6.672-3.133-5.852 1.004-11.598 2.937-17.598 2.742-4.187.098-8.051-2.148-10.914-5.059-4.621-4.519-7.012-10.839-8.086-17.109-.852-4.531-.609-9.16-.648-13.738 0-19.239.007-38.489-.004-57.727.273-3.164-3-5.312-5.856-5.422-3.922-.054-7.836-.105-11.754.031-2.832.149-6.019 2.215-5.652 5.403-.016 35.625-.039 71.238.008 106.863-.242 3.543 3.683 5.469 6.762 5.137 3.863-.254 9.136 1.199 11.648-2.688 1.906-4.507 2.812-9.375 4.602-13.922 5.386 7.391 12.527 13.907 21.347 16.817M0 163.328c1.09 1.25 2.363 2.602 4.18 2.473 5.32.051 10.656.168 15.972-.078 2.7-.078 4.559-2.45 4.953-4.961 5.23-21.27 10.368-42.571 15.575-63.848 1.527-6.57 3.386-13.074 4.382-19.758 1.028-6.004 1.231-12.097 2.208-18.113 1.343 8.586 2.546 17.226 4.863 25.613 6.808 25.395 13.613 50.785 20.43 76.172.53 2.895 3.253 4.953 6.148 4.953 5.922.149 11.855.047 17.777.047 3.176.149 6.575-1.707 7.34-4.961 5.086-18.512 10.11-37.058 15.176-55.586 3.074-12 7.101-23.797 8.84-36.11.48-3.39.949-6.788 1.648-10.155 1.91 19.343 6.887 38.164 10.981 57.105 3.379 15.07 6.683 30.156 10.101 45.227.504 3.027 3.707 4.55 6.528 4.465 4.789.027 9.586.164 14.367-.079 2.84-.082 4.472-3.222 3.472-5.754-9.609-35.457-19.183-70.937-28.796-106.394-.516-2.844-2.993-5.063-5.895-5.11-7.422-.242-14.859-.058-22.281-.097-2.66-.164-5.473 1.262-5.942 4.062-6.644 24.383-13.156 48.809-19.738 73.211-2.383 8.489-3.348 17.289-4.348 26.02-1.222-7.774-1.828-15.676-3.898-23.313-6.738-25.125-13.516-50.261-20.27-75.39-.761-4.07-5.414-4.883-8.875-4.617-6.902.125-13.804-.16-20.699.125-2.457-.008-4.351 1.906-4.793 4.226C19.72 88.02 10.063 123.352.367 158.66c-.336 1.543-.293 3.117-.367 4.668m870.453 2.406c5.039.086 10.098.106 15.137 0 3.066-.043 5.949-2.14 6.914-5.07 8.703-22.742 17.344-45.527 26.035-68.281 1.816-4.617 3.086-9.434 3.899-14.324 3.593 13.496 8.378 26.629 12.578 39.949 4.675 14.402 9.355 28.808 14.05 43.215.696 2.507 3.086 4.218 5.625 4.429 4.114.305 8.254.039 12.375.149 2.411-.028 5.282.254 7.118-1.68 1.191-1.008.937-2.683.441-3.992-13.906-39.668-27.773-79.356-41.66-119.035-2.414-6.61-4.27-13.528-8.156-19.473-5.575-9.055-14.61-15.574-24.539-19.101-3.469-1.075-7.051-3.457-10.782-2.122-2.648.676-3.664 3.43-5.078 5.454-1.015 1.836-2.89 3.535-2.5 5.82.184 2.266 2 4.11 4.141 4.715 4.187 1.445 8.445 3.039 11.836 5.996 8.242 6.973 13.34 17.285 15.281 27.781-1.316 4.66-3.75 8.945-5.516 13.457-13.261 30.82-26.523 61.652-39.816 92.461-.801 2.016-1.981 3.938-2.207 6.125.031 2.402 2.785 3.457 4.824 3.527m-618.336-14.906c-7.234-1.344-13.832-5.848-17.504-12.262-6.136-10.402-6.843-22.953-6.566-34.75.437-10.68 2.152-22.07 8.965-30.703 5.082-6.492 13.433-9.754 21.551-9.629 7.808-.25 15.988 2.395 21.281 8.332 6.761 7.395 8.933 17.657 9.863 27.332.41 9.504.602 19.18-1.863 28.461-1.961 7.84-6.102 15.68-13.266 19.903-6.668 4.09-14.906 4.472-22.461 3.316m3.055 16.914c13.09.805 26.805-1.914 37.609-9.668 9.664-6.875 16.227-17.469 19.293-28.828 3.645-13.562 3.629-28.035.324-41.668-3.113-12.566-10.394-24.414-21.378-31.555-11.739-7.789-26.485-9.812-40.262-8.152-11.738 1.445-23.176 6.594-31.348 15.242-9.605 10.063-14.375 23.926-15.367 37.629-1.207 15.196 1.121 31.281 9.574 44.258 6.254 9.766 16.196 16.941 27.285 20.215 4.625 1.445 9.45 2.117 14.27 2.527m386.121-16.297c-7.176-.461-14.102-4.59-17.305-11.14-6.258-12.114-6.386-26.211-6.074-39.532.5-8.703 1.445-17.687 5.5-25.546 2.742-5.293 7.723-9.473 13.613-10.754 9.012-2.168 19.618-.332 26.024 6.789 6.172 7.027 8.203 16.582 9.152 25.625.652 10.308.692 20.828-1.867 30.918-1.758 6.746-4.734 13.484-10.078 18.172-5.125 4.511-12.266 6.25-18.965 5.468m30.879 65.352c-.164 2.734 2.629 4.48 5.058 4.691 3.887.211 7.786.11 11.68.067 2.969.027 6.289-2.18 5.86-5.477 0-53.805.011-107.601-.008-161.398.203-2.778-2.532-4.934-5.098-5.102a76 76 0 0 0-9.289.05c-2.176.138-4.285 1.532-5.027 3.614-1.164 3.496-1.77 7.13-2.657 10.684-4.296-5.828-9.836-10.985-16.718-13.543-9.817-3.613-20.743-3.672-30.832-1.211-10.137 2.437-18.965 9.402-23.856 18.57-7.676 13.996-8.586 30.461-8.105 46.074.273 13.34 2.82 27.414 11.511 38 6.555 8.973 17.297 14.122 28.145 15.469 10.098 1.477 21.047-.222 29.406-6.34 3.953-2.781 7.117-6.511 9.942-10.41-.079 22.082-.059 44.172-.012 66.262m108.652-66.024c-3.601-.734-7.09-2.179-10-4.433-5.82-4.531-8.711-11.731-10.254-18.723-2.246-11.094-2.215-22.551-1.054-33.77 1.086-8.241 3.156-17.038 9.199-23.132 4.922-5.168 12.344-7.063 19.289-6.723 7.469-.27 15.242 2.512 20.059 8.38 6.023 7.284 7.722 16.976 8.601 26.105.559 10.734.566 21.726-2.449 32.148-1.906 6.492-5.391 12.949-11.27 16.648-6.476 4.25-14.668 4.641-22.121 3.5m-10 14.735c10.364 2.871 21.457 3.039 31.926.644 9.727-2.254 18.836-7.714 24.813-15.8 6.32-8.289 9.511-18.567 10.839-28.809 1.153-7.898.821-15.898.832-23.856 0-14.359 0-28.722-.039-43.078.157-1.75-.949-3.3-2.375-4.21-2.41-1.485-5.398-.829-8.086-.997-3.015.024-6.98-.242-8.621 2.895-1.601 3.687-1.933 7.8-2.961 11.68-4.043-4.915-8.23-9.985-14.082-12.825-8.914-4.406-19.336-4.148-28.875-2.285-11.672 2.305-22.422 9.207-29.023 19.152-7.863 11.583-10.715 25.88-10.606 39.696-.097 13.469 2.539 27.394 10.028 38.789 5.988 9.316 15.597 16.062 26.23 19.004m208.75-88.223c-5.926-2.176-9.656-9.012-8.144-15.183 1.543-7.246 9.972-12.192 17.004-9.512 6.484 1.98 10.574 9.375 8.562 15.894-1.766 7.336-10.469 11.672-17.422 8.801m.821 3.098c3.515.555 7.335.594 10.597-1.035 5.555-2.524 9.548-8.489 8.946-14.692.462-7.398-5.762-14.012-12.864-15.203-7.996-1.7-16.601 4.094-18.23 12.07-2.102 8.028 3.476 17.063 11.551 18.86" style="fill:#3069b5;fill-opacity:1;fill-rule:nonzero;stroke:none" transform="matrix(.13333 0 0 -.13333 0 53.373)"/><path d="M982.047 71.367c-.012-1.68-.02-3.36 0-5.05 1.473.09 2.988 0 4.441.402 1.367.566 1.231 2.304.86 3.469-1.414 1.382-3.516 1.023-5.301 1.18m-4.445 2.735c4.25-.243 9.015.957 12.843-1.415 3.086-2.316 1.59-7.355-1.894-8.43 1.004-2.655 2.402-5.124 3.679-7.655-1.609-.032-3.191-.059-4.773-.086a376 376 0 0 0-3.359 7.078c-.696.02-1.379.027-2.051.039-.012-2.364-.012-4.727-.012-7.09-1.504.02-2.976.039-4.453.05.012 5.84-.008 11.68.02 17.509" style="fill:#3069b5;fill-opacity:1;fill-rule:nonzero;stroke:none" transform="matrix(.13333 0 0 -.13333 0 53.373)"/></svg>